<svg width="24" height="24" viewBox="0 0 24 24" fill="none" xmlns="http://www.w3.org/2000/svg" role="img" aria-labelledby="googleTitle googleDesc">
  <title id="googleTitle">Google icon</title>
  <desc id="googleDesc">Color Google G mark</desc>
  <path d="M23.49 12.27c0-.79-.07-1.55-.2-2.27H12v4.3h6.45a5.52 5.52 0 0 1-2.39 3.62v3h3.87c2.26-2.08 3.56-5.14 3.56-8.65Z" fill="#4285F4"/>
  <path d="M12 24c3.24 0 5.96-1.08 7.95-2.93l-3.87-3c-1.08.73-2.46 1.18-4.08 1.18-3.13 0-5.78-2.11-6.73-4.95H1.28v3.1C3.25 21.32 7.29 24 12 24Z" fill="#34A853"/>
  <path d="M5.27 14.3A7.2 7.2 0 0 1 4.89 12c0-.8.14-1.56.38-2.3V6.6H1.28A12.03 12.03 0 0 0 0 12c0 1.94.46 3.78 1.28 5.4l3.99-3.1Z" fill="#FBBC04"/>
  <path d="M12 4.77c1.76 0 3.33.6 4.57 1.8l3.42-3.42C17.95 1.19 15.24 0 12 0 7.3 0 3.25 2.67 1.28 6.6l3.99 3.1c.95-2.84 3.6-4.93 6.73-4.93Z" fill="#EA4335"/>
</svg>
